<svg xmlns="http://www.w3.org/2000/svg" x="0px" y="0px"
width="56" height="56"
viewBox="0 0 512 512"
style=" fill:white;"><path d="M 245.83594 57.628906 C 206.90194 57.628906 170.60233 68.361969 140.86133 88.667969 C 108.35933 110.85797 84.840844 143.03888 70.964844 184.29688 C 68.266844 192.27087 70.053297 197.22647 72.029297 199.98047 C 74.231297 203.05047 77.651156 204.81055 81.410156 204.81055 C 86.216156 204.81055 90.533 202.09361 94.25 196.72461 C 112.526 170.24661 137.928 156.82227 169.75 156.82227 C 215.359 156.82227 265.44177 183.95594 300.00977 211.46094 L 272.24609 242.44336 C 264.27509 251.34136 263.68475 264.74069 270.84375 274.30469 C 275.56975 280.61669 283.09742 284.38281 290.98242 284.38281 L 442.90234 284.38281 C 459.68734 284.38281 473.39648 270.80367 473.39648 253.88867 L 473.39648 101.89062 C 473.39648 88.219625 462.31928 76.853516 448.36328 76.853516 C 442.08028 76.853516 436.07041 79.191547 431.44141 83.435547 L 399.00391 113.17578 C 353.49991 77.292781 299.43494 57.628906 245.83594 57.628906 z M 246.42773 77.591797 C 296.78068 77.894951 349.91492 97.854375 392.95508 134.03906 C 396.80108 137.27106 402.44544 137.15281 406.14844 133.75781 L 444.95898 98.177734 C 445.88998 97.324734 447.09928 96.853516 448.36328 96.853516 C 451.18928 96.853516 453.39648 99.164625 453.39648 101.89062 L 453.39648 253.88867 C 453.39648 259.67867 448.71134 264.38281 442.90234 264.38281 L 290.98242 264.38281 C 289.36642 264.38281 287.82347 263.61036 286.85547 262.31836 C 285.38747 260.35836 285.50958 257.61106 287.14258 255.78906 L 321.85547 217.05273 C 325.59447 212.87873 325.17511 206.43425 320.91211 202.78125 C 306.19311 190.17725 282.20662 172.10041 251.51562 157.56641 C 203.25463 134.71141 147.91255 125.58769 104.68555 157.30469 C 135.8662 102.15297 189.36106 77.248222 246.42773 77.591797 z M 69.097656 227.61719 C 52.307656 227.61719 38.603516 241.19738 38.603516 258.10938 L 38.603516 410.10938 C 38.603516 423.80037 49.699719 435.14648 63.636719 435.14648 C 64.005719 435.07648 72.855641 435.62545 80.556641 428.56445 L 112.99609 398.82422 C 158.48909 434.70822 212.54934 454.37109 266.15234 454.37109 C 305.08834 454.37109 341.38981 443.63803 371.13281 423.33203 C 403.63881 401.14103 427.15888 368.96283 441.04688 327.67383 C 443.71587 319.69683 441.92131 314.74986 439.94531 312.00586 C 437.74631 308.94886 434.33489 307.19531 430.58789 307.19531 C 425.77689 307.19531 421.457 309.92573 417.75 315.30273 C 399.479 341.76573 374.07981 355.18355 342.25781 355.18555 C 296.62581 355.18755 246.54728 328.05397 211.98828 300.54297 L 239.75195 269.55664 C 247.72495 260.65864 248.3153 247.25731 241.1543 237.69531 C 236.4293 231.38431 228.90158 227.61719 221.01758 227.61719 L 69.097656 227.61719 z M 69.095703 247.61719 L 221.01758 247.61719 C 222.63258 247.61719 224.17358 248.38959 225.14258 249.68359 C 226.60958 251.64259 226.48947 254.38794 224.85547 256.21094 L 190.14258 294.94922 C 186.39658 299.13022 186.82998 305.5708 191.08398 309.2168 C 228.30698 341.1098 287.56686 375.18755 342.25586 375.18555 C 366.92286 375.18355 388.91092 368.20166 407.29492 354.72266 C 348.59592 458.49366 210.83492 455.14894 119.04492 377.96094 C 115.19992 374.72794 109.55456 374.84819 105.85156 378.24219 L 67.041016 413.82227 C 65.489016 415.24527 63.740719 415.12748 63.636719 415.14648 C 60.811719 415.14648 58.601563 412.83438 58.601562 410.10938 L 58.601562 258.10938 C 58.601562 252.33337 63.273703 247.61719 69.095703 247.61719 z"></path></svg>